PathFileType	4	(X/Y/Z)	D:\Long Term Storage\D'Arcy Smith\Coord6.trc
DataRate	CameraRate	NumFrames	NumMarkers	Units	OrigDataRate	OrigDataStartFrame	OrigNumFrames
120.00	120.00	      62	4	mm	120.00	608	      4863
Frame#	Time	M1			M2			M3			M4			
		X1	Y1	Z1	X2	Y2	Z2	X3	Y3	Z3	X4	Y4	Z4	

608	5.058	1033.93164	321.18851	520.12183	1617.06458	377.24963	303.26129							
609	5.067	1037.51904	319.88388	505.30927	1616.25879	384.71509	292.66479							
610	5.075	1040.92175	318.73233	490.81143	1616.04822	391.99399	283.05109							
611	5.083	1045.38440	318.27594	476.38266	1615.90588	399.09448	274.44617							
612	5.092	1049.55115	318.26764	462.11600	1616.01343	405.39871	267.75830							
613	5.100	1055.05469	319.03763	448.32663	1615.77893	411.21286	261.14639							
614	5.108	1058.60693	319.58914	434.58664	1616.20605	416.09860	257.03577							
615	5.117	1063.18347	321.22995	421.14355	1616.77930	420.19229	253.87039							
616	5.125	1067.46460	323.49161	408.14838	1617.26917	423.37943	251.11932							
617	5.133	1071.93567	326.40881	395.44669	1618.33313	425.51135	250.30565							
618	5.142	1075.54236	329.35260	383.55341	1619.37939	426.84781	250.33537							
619	5.150	1079.00891	332.77585	372.29260	1620.49817	427.28372	251.11786							
620	5.158	1082.04053	336.67789	361.98724	1622.21106	426.81436	253.45201							
621	5.167	1085.48987	340.33795	351.75589	1623.65918	425.81042	255.80170							
622	5.175	1087.64404	344.45282	343.09106	1624.92139	424.20898	258.44348							
623	5.183	1090.55090	348.43723	334.53625	1626.15967	422.14975	261.42746							
624	5.192	1092.23535	351.52783	327.19815	1627.51050	419.16016	264.47711							
625	5.200	1094.03235	355.07404	320.32224	1629.34277	416.14435	269.16940							
626	5.208	1095.19348	358.39389	314.41757	1630.43823	412.52802	273.25766							
627	5.217	1095.61145	361.16104	309.71207	1631.32507	408.28214	277.53464							
628	5.225	1096.37634	363.65079	305.30881	1632.16968	403.97968	282.02921							
629	5.233	1096.19202	365.46255	302.04492	1633.19165	399.29050	286.99582							
630	5.242	1096.17566	367.15958	299.36133	1634.16528	394.14496	292.45517							
631	5.250	1095.64746	368.44913	297.64478	1635.29138	388.72983	297.73965							
632	5.258	1094.93713	368.92703	296.62817	1636.16956	383.22083	303.91794							
633	5.267	1093.52002	368.99911	296.50589	1636.77356	377.28635	310.04773							
634	5.275	1091.88965	368.49597	297.25858	1637.41614	371.20078	316.72238							
635	5.283	1090.08093	367.32980	298.54465	1638.13879	364.79251	324.20264							
636	5.292	1088.59644	366.28400	300.64020	1638.77625	358.26428	332.06244							
637	5.300	1086.31348	364.37665	303.60611	1639.65369	351.68936	341.09955							
638	5.308	1085.37231	362.86798	306.58383	1640.38953	345.11942	350.37433							
639	5.317	1082.02637	359.31348	311.04895	1641.09998	338.67059	360.69418							
640	5.325	1080.02710	356.72620	315.58533	1642.01685	332.74597	372.89093							
641	5.333	1077.60706	353.64532	320.95966	1642.64148	326.69064	385.26648							
642	5.342	1075.02515	350.07611	326.62079	1642.86975	320.83218	397.39157							
643	5.350	1072.76489	346.48596	333.03653	1643.38440	315.79224	412.56131							
644	5.358	1070.58838	342.51959	339.74344	1643.30737	311.32776	425.29480							
645	5.367	1068.14429	338.79980	347.23514	1643.31567	307.33173	440.31320							
646	5.375	1065.76270	335.04080	355.21500	1643.01819	304.04895	454.59940							
647	5.383	1063.89478	331.27219	363.36331	1642.80151	301.31192	469.60715							
648	5.392	1061.26758	327.62946	372.67612	1642.41663	299.74097	484.74973							
649	5.400	1059.27966	323.94934	381.65045	1641.89941	299.06616	500.47122							
650	5.408	1057.54736	320.49899	391.10245	1640.86084	298.11780	514.28619							
651	5.417	1056.04248	317.30511	401.20114	1640.12500	298.33701	528.65308							
652	5.425	1054.31909	314.12592	411.53751	1639.27222	299.03516	542.56293							
653	5.433	1053.35193	311.26923	421.62933	1638.04004	300.01697	556.17932							
654	5.442	1051.50134	309.01810	432.44437	1636.52856	301.18060	567.91772							
655	5.450	1050.36426	306.71075	443.42810	1635.21277	302.93759	579.47241							
656	5.458	1048.69409	305.28436	453.76266	1634.03662	304.41293	590.28046							
657	5.467	1047.82886	303.57245	465.00909	1632.58704	307.24329	600.07593							
658	5.475	1046.50403	301.99509	476.66656	1631.06006	310.22180	608.80597							
659	5.483	1045.82532	301.13568	488.25156	1629.49255	313.13889	617.73071							
660	5.492	1044.64636	300.78601	500.25027	1627.66516	315.67664	624.68817							
661	5.500	1043.54468	301.01965	512.30353	1626.17041	318.18201	630.47821							
662	5.508	1042.36206	302.09335	524.24158	1624.44653	320.44727	635.19873							
663	5.517	1041.61768	303.27682	535.79315	1622.84277	322.45914	638.74377							
664	5.525	1040.71216	305.69861	547.96252	1621.22620	324.30264	641.08148							
665	5.533	1039.52930	308.44788	558.90936	1619.94824	325.01764	640.96838							
666	5.542	1038.43469	311.80588	569.41309	1618.66797	325.86212	640.54102							
667	5.550	1037.40735	315.20361	579.39581	1617.60718	326.03915	639.05438							
668	5.558	1036.01721	318.91879	588.53821	1616.52795	325.64752	635.96857							
669	5.567	1035.12292	322.68314	597.10681	1615.81616	324.56723	631.92963							
